<?xml version="1.0" encoding="UTF-8"?>
<svg xmlns="http://www.w3.org/2000/svg" width="167.64mm" height="200.32mm" xmlns:xlink="http://www.w3.org/1999/xlink" viewBox="0 0 475.19 567.83">
  <defs>
    <filter id="AI_GaussiskSløring_4">
      <feGaussianBlur stdDeviation="4"/>
    </filter>
    <filter id="AI_GaussiskSløring_4-2" data-name="AI_GaussiskSløring_4">
      <feGaussianBlur stdDeviation="4"/>
    </filter>
  </defs>
  <g id="filling">
    <rect x=".5" y=".5" width="474.19" height="566.83" style="fill: #f4aeca; stroke: #f4aeca; stroke-linecap: round; stroke-miterlimit: 10;"/>
    <g id="Spejl">
      <rect x="32.24" y="88.4" width="214.58" height="314.58" style="fill: none; stroke: #bc9cca; stroke-miterlimit: 10; stroke-width: 10px;"/>
    </g>
    <rect x="32.24" y="90.39" width="211.78" height="309.78" style="fill: #007389; stroke: #6ab977; stroke-linecap: round; stroke-miterlimit: 10; stroke-width: .25px;"/>
    <g id="stars">
      <g>
        <path d="M12.41,70.89c-2.58-3.61-6.31-4.29-6.31-4.29,0,0,3.5-.87,6.16-4.11,2.41-2.93,3.78-8.23,3.78-8.23,0,0,.54,5.9,3.47,8.83,3.13,3.13,6.48,3.51,6.48,3.51,0,0-4.37,1.28-6.47,4.28-2.82,4.02-3.48,8.15-3.48,8.15,0,0-1.25-4.79-3.64-8.14Z" style="fill: #bc9cca; stroke: #bc9cca; stroke-linecap: round; stroke-miterlimit: 10; stroke-width: .5px;"/>
        <path d="M21.13,35.8c-3.45-4.83-8.43-5.73-8.43-5.73,0,0,4.67-1.17,8.24-5.5,3.22-3.91,5.05-10.99,5.05-10.99,0,0,.73,7.89,4.63,11.8,4.19,4.19,8.66,4.69,8.66,4.69,0,0-5.84,1.71-8.65,5.72-3.76,5.37-4.64,10.89-4.64,10.89,0,0-1.67-6.4-4.86-10.88Z" style="fill: #bc9cca; stroke: #bc9cca; stroke-linecap: round; stroke-miterlimit: 10; stroke-width: .5px;"/>
        <path d="M41.74,54.25c-1.73-2.42-4.23-2.88-4.23-2.88,0,0,2.35-.59,4.14-2.76,1.62-1.96,2.54-5.52,2.54-5.52,0,0,.37,3.96,2.33,5.92,2.1,2.1,4.35,2.36,4.35,2.36,0,0-2.93.86-4.34,2.87-1.89,2.7-2.33,5.47-2.33,5.47,0,0-.84-3.21-2.44-5.46Z" style="fill: #bc9cca; stroke: #bc9cca; stroke-linecap: round; stroke-miterlimit: 10; stroke-width: .5px;"/>
        <path d="M11.19,433.47c-3.45-4.83-8.43-5.73-8.43-5.73,0,0,4.67-1.17,8.24-5.5,3.22-3.91,5.05-10.99,5.05-10.99,0,0,.73,7.89,4.63,11.8,4.19,4.19,8.66,4.69,8.66,4.69,0,0-5.84,1.71-8.65,5.72-3.76,5.37-4.64,10.89-4.64,10.89,0,0-1.67-6.4-4.86-10.88Z" style="fill: #bc9cca; stroke: #bc9cca; stroke-linecap: round; stroke-miterlimit: 10; stroke-width: .5px;"/>
        <path d="M40.92,448.15c-2.31-3.24-5.65-3.84-5.65-3.84,0,0,3.14-.78,5.53-3.69,2.16-2.62,3.39-7.38,3.39-7.38,0,0,.49,5.29,3.11,7.92,2.81,2.81,5.81,3.15,5.81,3.15,0,0-3.92,1.15-5.8,3.84-2.53,3.6-3.12,7.31-3.12,7.31,0,0-1.12-4.29-3.26-7.3Z" style="fill: #bc9cca; stroke: #bc9cca; stroke-linecap: round; stroke-miterlimit: 10; stroke-width: .5px;"/>
        <path d="M232.64,432.5c-2.86-4-6.99-4.75-6.99-4.75,0,0,3.87-.97,6.83-4.56,2.67-3.24,4.19-9.11,4.19-9.11,0,0,.6,6.54,3.84,9.78,3.47,3.47,7.18,3.89,7.18,3.89,0,0-4.84,1.42-7.17,4.74-3.12,4.45-3.85,9.03-3.85,9.03,0,0-1.38-5.31-4.03-9.02Z" style="fill: #bc9cca; stroke: #bc9cca; stroke-linecap: round; stroke-miterlimit: 10; stroke-width: .5px;"/>
        <path d="M202.93,462.49c-4.28-5.99-10.46-7.11-10.46-7.11,0,0,5.8-1.45,10.22-6.82,3.99-4.85,6.27-13.64,6.27-13.64,0,0,.9,9.79,5.75,14.64,5.2,5.2,10.74,5.82,10.74,5.82,0,0-7.24,2.12-10.73,7.1-4.67,6.66-5.76,13.51-5.76,13.51,0,0-2.07-7.94-6.04-13.5Z" style="fill: #bc9cca; stroke: #bc9cca; stroke-linecap: round; stroke-miterlimit: 10; stroke-width: .5px;"/>
      </g>
    </g>
  </g>
  <g id="mirror_girl">
    <path d="M183.06,291.27c4.59-4.04,23.14-29.61,26.9-46.17,6.11-26.9,1.83-49.53-6.73-62.37-7.41-11.11-24.76-24.15-39.75-26.33-14.18-2.06-26.98,7.07-26.98,7.07,0,0-16.13-10.39-32.99-6.95-12.28,2.51-34.5,21.02-40,35.85-3.96,10.67-7.34,46.92-2.11,59.61,4.23,10.25,20.45,33.48,31.15,39.59,0,0-10.7,3.97-10.7,15.9,0,7.09,10.7,11.31,17.12,11.62s74.29-.31,74.29-.31c0,0,21.25-2.14,20.03-15.29-.93-10.05-10.24-12.23-10.24-12.23Z" style="fill: #75c5bf; stroke: #75c5bf; stroke-linecap: round; stroke-miterlimit: 10;"/>
    <path d="M83.62,211.94l5.35-1.65s14.43-3.1,25.16-9.8,19.67-20.09,19.67-20.09l5.47-7.6s17.45,23.85,22.19,26.37c8.9,6.65,26.87,8.37,26.87,8.37l-1.07,40.78c0,9.47-4.29,18.44-11.67,24.38l-18.96,14.17c-13.3,7.78-29.82,7.55-42.89-.6l-16.54-14.19c-8.62-7.4-13.58-18.19-13.58-29.54v-31.47" style="fill: #f0e4d4; stroke: #f0e4d4; stroke-linecap: round; stroke-miterlimit: 10;"/>
    <path d="M73.61,211.78c6.66.49,13.22-1.62,19.58-3.37,6.37-1.91,12.66-4.2,18.55-7.24,5.89-3.02,10.57-7.91,14.98-12.84,4.38-5,8.39-10.33,12.15-15.8l.41-.59.41.58c7.04,9.72,14.31,19.68,23.79,27.16,4.93,3.46,10.99,4.94,16.83,6.1,5.94,1.15,11.99,1.77,18.04,2.02-6.06-.1-12.13-.56-18.12-1.56-5.97-1.07-12.07-2.5-17.18-5.96-4.96-3.6-9.05-8.17-13.02-12.78-3.94-4.63-7.63-9.46-11.15-14.42h.81c-3.76,5.54-7.85,10.83-12.28,15.86-4.48,4.95-9.24,9.93-15.31,12.93-6.01,2.99-12.35,5.2-18.78,7.02-6.41,1.6-13.05,3.55-19.72,2.89h0Z" style="fill: #007389;"/>
    <rect x="128.68" y="290.61" width="16.57" height="25.45" style="fill: #f0e4d4; stroke: #f0e4d4; stroke-linecap: round; stroke-miterlimit: 10; stroke-width: .25px;"/>
    <polygon points="67.34 316.06 210.42 316.06 138.88 400.71 67.34 316.06" style="fill: #6ab977; stroke: #6ab977; stroke-linecap: round; stroke-miterlimit: 10; stroke-width: .25px;"/>
    <path d="M92.47,225.91s6.32-11.03,18.96-10.51,17.25,11.17,17.25,11.17c0,0-10.17,6.96-17.51,6.7-7.33-.26-18.71-7.36-18.71-7.36Z" style="fill: #fff; stroke: #fff; stroke-linecap: round; stroke-miterlimit: 10; stroke-width: .75px;"/>
    <circle cx="110.58" cy="224.33" r="6.99" style="fill: #6ab977; stroke: #6ab977; stroke-linecap: round; stroke-miterlimit: 10;"/>
    <path d="M143.57,226.6s6.32-11.03,18.96-10.51c12.64.53,17.25,11.17,17.25,11.17,0,0-10.17,6.96-17.51,6.7-7.33-.26-18.71-7.36-18.71-7.36Z" style="fill: #fff; stroke: #fff; stroke-linecap: round; stroke-miterlimit: 10; stroke-width: .75px;"/>
    <circle cx="161.68" cy="225.02" r="6.99" style="fill: #6ab977; stroke: #6ab977; stroke-linecap: round; stroke-miterlimit: 10;"/>
    <ellipse cx="132.15" cy="249.15" rx=".76" ry="1.3" style="fill: #007389; stroke: #007389; stroke-linecap: round; stroke-miterlimit: 10;"/>
    <ellipse cx="139.64" cy="249.15" rx=".76" ry="1.3" style="fill: #007389; stroke: #007389; stroke-linecap: round; stroke-miterlimit: 10;"/>
    <path d="M119.48,266.92s4.95,7.22,17.03,7.22,17.03-7.22,17.03-7.22" style="fill: none; stroke: #007389; stroke-linecap: round; stroke-miterlimit: 10; stroke-width: .5px;"/>
    <path d="M128.68,245.77s-2.34.61-2.46,3.4,2.46,3.36,2.46,3.36" style="fill: none; stroke: #007389; stroke-linecap: round; stroke-miterlimit: 10; stroke-width: .25px;"/>
    <path d="M142.41,245.77s2.21.61,2.32,3.4-2.32,3.36-2.32,3.36" style="fill: none; stroke: #007389; stroke-linecap: round; stroke-miterlimit: 10; stroke-width: .25px;"/>
    <ellipse cx="171.73" cy="245.77" rx="7.18" ry="5.04" style="fill: #f4aeca; stroke: #f4aeca; stroke-linecap: round; stroke-miterlimit: 10;"/>
    <ellipse cx="99.66" cy="245.41" rx="7.18" ry="5.04" style="fill: #f4aeca; stroke: #f4aeca; stroke-linecap: round; stroke-miterlimit: 10;"/>
  </g>
  <g id="q_mark">
    <path d="M404.16,191.69s-1.38-14.99,11.46-14.53c12.84.46,12.84,14.53,12.84,14.53,0,0,.46,13.45-10.09,14.36v14.68" style="fill: none; opacity: .97; stroke: #e82f82; stroke-linecap: round; stroke-linejoin: round; stroke-width: 8px;"/>
    <circle cx="419.28" cy="234.54" r=".56" style="fill: none; stroke: #e82f82; stroke-linecap: round; stroke-linejoin: round; stroke-width: 8px;"/>
    <g id="outer_girl">
      <polygon points="244.98 389.85 404.12 389.85 324.55 559.99 244.98 389.85" style="fill: #e82f82; stroke: #e82f82; stroke-linecap: round; stroke-miterlimit: 10;"/>
      <path d="M250.32,360.47s-20.27-62.58,0-109.81c12.9-30.07,40.62-43.28,56.16-39.29,8.67,2.22,12.79,7.73,12.79,7.73,0,0,5.4-13.87,27.3-12.92,30.36,1.31,46.12,19.87,55.64,53.38,9.13,32.14,8.83,69.83.88,95.8-12.14,39.66-47.31,28.65-48.36,74.48-.5,21.87,25.25,36.41,31.5,37.45,6.25,1.04-40.5,5.42-61.71-3.07-12.76-5.11-29.17-18.75-42.71-38.54-13.54-19.79-26.08-42.77-31.49-65.19Z" style="fill: #ddc960; stroke: #e82f82; stroke-linecap: round; stroke-miterlimit: 10; stroke-width: .5px;"/>
    </g>
  </g>
  <g id="sigil">
    <circle cx="366.43" cy="111.14" r="34.56" style="fill: none; stroke: #346767; stroke-linecap: round; stroke-linejoin: round; stroke-width: 3px;"/>
    <line x1="366.43" y1="44.24" x2="366.43" y2="186.64" style="fill: none; stroke: #346767; stroke-linecap: round; stroke-linejoin: round; stroke-width: 4px;"/>
    <line x1="353.94" y1="57.31" x2="380.08" y2="57.31" style="fill: none; stroke: #346767; stroke-linecap: round; stroke-linejoin: round; stroke-width: 3px;"/>
    <path d="M384.21,150.18l-52.34-97.68s13.35,22.7,34.56,24.08,34.56-24.08,34.56-24.08l-52.33,99.75" style="fill: none; stroke: #346767; stroke-linecap: round; stroke-linejoin: round; stroke-width: 3px;"/>
    <line x1="356.69" y1="161.29" x2="375.95" y2="161.29" style="fill: none; stroke: #346767; stroke-linecap: round; stroke-linejoin: round; stroke-width: 3px;"/>
    <line x1="383.52" y1="174.25" x2="349.3" y2="174.25" style="fill: none; stroke: #346767; stroke-linecap: round; stroke-linejoin: round; stroke-width: 3px;"/>
    <circle cx="343.19" cy="37.34" r="6.11" style="fill: none; stroke: #346767; stroke-linecap: round; stroke-linejoin: round; stroke-width: 2px;"/>
    <circle cx="389.63" cy="37.34" r="6.11" style="fill: none; stroke: #346767; stroke-linecap: round; stroke-linejoin: round; stroke-width: 2px;"/>
    <circle cx="366.32" cy="22.74" r="6.11" style="fill: none; stroke: #346767; stroke-linecap: round; stroke-linejoin: round; stroke-width: 2px;"/>
  </g>
  <g id="hover">
    <g style="filter: url(#AI_GaussiskSløring_4); opacity: .61;">
      <g id="q_mark_h">
        <path d="M404.16,191.69s-1.38-14.99,11.46-14.53c12.84.46,12.84,14.53,12.84,14.53,0,0,.46,13.45-10.09,14.36v14.68" style="fill: none; opacity: .97; stroke: #e82f82; stroke-linecap: round; stroke-linejoin: round; stroke-width: 8px;"/>
        <circle cx="419.28" cy="234.54" r=".56" style="fill: none; stroke: #e82f82; stroke-linecap: round; stroke-linejoin: round; stroke-width: 8px;"/>
      </g>
      <polygon points="244.98 389.85 404.12 389.85 324.55 559.99 244.98 389.85" style="fill: #e82f82; stroke: #e82f82; stroke-linecap: round; stroke-miterlimit: 10;"/>
      <path d="M250.32,360.47s-20.27-62.58,0-109.81c12.9-30.07,40.62-43.28,56.16-39.29,8.67,2.22,12.79,7.73,12.79,7.73,0,0,5.4-13.87,27.3-12.92,30.36,1.31,46.12,19.87,55.64,53.38,9.13,32.14,8.83,69.83.88,95.8-12.14,39.66-47.31,28.65-48.36,74.48-.5,21.87,25.25,36.41,31.5,37.45,6.25,1.04-40.5,5.42-61.71-3.07-12.76-5.11-29.17-18.75-42.71-38.54-13.54-19.79-26.08-42.77-31.49-65.19Z" style="fill: #ddc960; stroke: #e82f82; stroke-linecap: round; stroke-miterlimit: 10; stroke-width: .5px;"/>
    </g>
    <g id="sigil_h">
      <circle cx="366.43" cy="110.88" r="34.56" style="fill: none; stroke: #75c5bf; stroke-miterlimit: 10;"/>
      <line x1="366.43" y1="43.98" x2="366.43" y2="186.37" style="fill: none; stroke: #75c5bf; stroke-miterlimit: 10;"/>
      <line x1="353.94" y1="57.05" x2="380.08" y2="57.05" style="fill: none; stroke: #75c5bf; stroke-miterlimit: 10;"/>
      <path d="M384.21,149.92l-52.34-97.68s13.35,22.7,34.56,24.08,34.56-24.08,34.56-24.08l-52.33,99.75" style="fill: none; stroke: #75c5bf; stroke-miterlimit: 10;"/>
      <line x1="356.69" y1="161.02" x2="375.95" y2="161.02" style="fill: none; stroke: #75c5bf; stroke-miterlimit: 10;"/>
      <line x1="383.52" y1="173.99" x2="349.3" y2="173.99" style="fill: none; stroke: #75c5bf; stroke-miterlimit: 10;"/>
      <circle cx="343.19" cy="37.07" r="6.11" style="fill: none; stroke: #75c5bf; stroke-miterlimit: 10;"/>
      <circle cx="389.63" cy="37.07" r="6.11" style="fill: none; stroke: #75c5bf; stroke-miterlimit: 10;"/>
      <circle cx="366.32" cy="22.48" r="6.11" style="fill: none; stroke: #75c5bf; stroke-miterlimit: 10;"/>
    </g>
    <g id="mirror_girl_h" style="filter: url(#AI_GaussiskSløring_4-2); opacity: .59;">
      <path d="M183.78,291.27c4.59-4.04,23.14-29.61,26.9-46.17,6.11-26.9,1.83-49.53-6.73-62.37-7.41-11.11-24.76-24.15-39.75-26.33-14.18-2.06-26.98,7.07-26.98,7.07,0,0-16.13-10.39-32.99-6.95-12.28,2.51-34.5,21.02-40,35.85-3.96,10.67-7.34,46.92-2.11,59.61,4.23,10.25,20.45,33.48,31.15,39.59,0,0-10.7,3.97-10.7,15.9,0,7.09,10.7,11.31,17.12,11.62s74.29-.31,74.29-.31c0,0,21.25-2.14,20.03-15.29-.93-10.05-10.24-12.23-10.24-12.23Z" style="fill: #75c5bf; stroke: #75c5bf; stroke-linecap: round; stroke-miterlimit: 10;"/>
      <path d="M84.34,211.94l5.35-1.65s14.43-3.1,25.16-9.8,19.67-20.09,19.67-20.09l5.47-7.6s17.45,23.85,22.19,26.37c8.9,6.65,26.87,8.37,26.87,8.37l-1.07,40.78c0,9.47-4.29,18.44-11.67,24.38l-18.96,14.17c-13.3,7.78-29.82,7.55-42.89-.6l-16.54-14.19c-8.62-7.4-13.58-18.19-13.58-29.54v-31.47" style="fill: #f0e4d4; stroke: #f0e4d4; stroke-linecap: round; stroke-miterlimit: 10;"/>
      <path d="M74.33,211.78c6.66.49,13.22-1.62,19.58-3.37,6.37-1.91,12.66-4.2,18.55-7.24,5.89-3.02,10.57-7.91,14.98-12.84,4.38-5,8.39-10.33,12.15-15.8l.41-.59.41.58c7.04,9.72,14.31,19.68,23.79,27.16,4.93,3.46,10.99,4.94,16.83,6.1,5.94,1.15,11.99,1.77,18.04,2.02-6.06-.1-12.13-.56-18.12-1.56-5.97-1.07-12.07-2.5-17.18-5.96-4.96-3.6-9.05-8.17-13.02-12.78-3.94-4.63-7.63-9.46-11.15-14.42h.81c-3.76,5.54-7.85,10.83-12.28,15.86-4.48,4.95-9.24,9.93-15.31,12.93-6.01,2.99-12.35,5.2-18.78,7.02-6.41,1.6-13.05,3.55-19.72,2.89h0Z" style="fill: #007389;"/>
      <rect x="129.41" y="290.61" width="16.57" height="25.45" style="fill: #f0e4d4; stroke: #f0e4d4; stroke-linecap: round; stroke-miterlimit: 10; stroke-width: .25px;"/>
      <polygon points="68.06 316.06 211.14 316.06 139.6 400.71 68.06 316.06" style="fill: #6ab977; stroke: #6ab977; stroke-linecap: round; stroke-miterlimit: 10; stroke-width: .25px;"/>
      <path d="M93.2,225.91s6.32-11.03,18.96-10.51c12.64.53,17.25,11.17,17.25,11.17,0,0-10.17,6.96-17.51,6.7-7.33-.26-18.71-7.36-18.71-7.36Z" style="fill: #fff; stroke: #fff; stroke-linecap: round; stroke-miterlimit: 10; stroke-width: .75px;"/>
      <circle cx="111.3" cy="224.33" r="6.99" style="fill: #6ab977; stroke: #6ab977; stroke-linecap: round; stroke-miterlimit: 10;"/>
      <path d="M144.29,226.6s6.32-11.03,18.96-10.51c12.64.53,17.25,11.17,17.25,11.17,0,0-10.17,6.96-17.51,6.7s-18.71-7.36-18.71-7.36Z" style="fill: #fff; stroke: #fff; stroke-linecap: round; stroke-miterlimit: 10; stroke-width: .75px;"/>
      <circle cx="162.4" cy="225.02" r="6.99" style="fill: #6ab977; stroke: #6ab977; stroke-linecap: round; stroke-miterlimit: 10;"/>
      <ellipse cx="132.88" cy="249.15" rx=".76" ry="1.3" style="fill: #007389; stroke: #007389; stroke-linecap: round; stroke-miterlimit: 10;"/>
      <ellipse cx="140.37" cy="249.15" rx=".76" ry="1.3" style="fill: #007389; stroke: #007389; stroke-linecap: round; stroke-miterlimit: 10;"/>
      <path d="M120.21,266.92s4.95,7.22,17.03,7.22,17.03-7.22,17.03-7.22" style="fill: none; stroke: #007389; stroke-linecap: round; stroke-miterlimit: 10; stroke-width: .5px;"/>
      <path d="M129.41,245.77s-2.34.61-2.46,3.4,2.46,3.36,2.46,3.36" style="fill: none; stroke: #007389; stroke-linecap: round; stroke-miterlimit: 10; stroke-width: .25px;"/>
      <path d="M143.13,245.77s2.21.61,2.32,3.4-2.32,3.36-2.32,3.36" style="fill: none; stroke: #007389; stroke-linecap: round; stroke-miterlimit: 10; stroke-width: .25px;"/>
      <ellipse cx="172.45" cy="245.77" rx="7.18" ry="5.04" style="fill: #f4aeca; stroke: #f4aeca; stroke-linecap: round; stroke-miterlimit: 10;"/>
      <ellipse cx="100.38" cy="245.41" rx="7.18" ry="5.04" style="fill: #f4aeca; stroke: #f4aeca; stroke-linecap: round; stroke-miterlimit: 10;"/>
    </g>
  </g>
  <g id="mirrorflares">
    <polyline points="95.49 99.67 74.07 116.64 52.65 133.61" style="fill: none; stroke: #f6f6f6; stroke-linecap: round; stroke-miterlimit: 10;"/>
    <polyline points="120.6 99.67 82.39 129.93 44.18 160.19" style="fill: none; stroke: #f6f6f6; stroke-linecap: round; stroke-miterlimit: 10;"/>
    <polyline points="226.01 291.89 192.48 319.67 158.94 347.45" style="fill: none; stroke: #f6f6f6; stroke-linecap: round; stroke-miterlimit: 10;"/>
    <polyline points="225.65 271.48 200.2 292.69 174.75 313.9" style="fill: none; stroke: #f6f6f6; stroke-linecap: round; stroke-miterlimit: 10;"/>
  </g>
</svg>